# xmcd
#
# Track frame offsets: 
#        150
#        15661
#        30399
#        50332
#        67715
#        83792
#        101203
#        114889
#        127033
#        141183
#        158131
#        188210
#
# Disc length: 2918 seconds
#
# Revision: 0
# Processed by: cddbd v1.5.2PL0 Copyright (c) Steve Scherf et al.
# Submitted via: ExactAudioCopy v1.0b3
#
DISCID=940b640c
DTITLE=Teri DeSario - Pleasure Train
DYEAR=1978
DGENRE=
TTITLE0=The Stuff Dreams Are Made Of
TTITLE1=Back In Your Arms Again
TTITLE2=Pleasure Train
TTITLE3=It Takes A Man And A Woman
TTITLE4=Save Me, Save Me
TTITLE5=Ain't Nothin' Gonna Keep Me From You
TTITLE6=Just Another Song And Dance Man
TTITLE7=Sometime Kind Of Thing
TTITLE8=Baby I Don't Want Your Love
TTITLE9=Loving You The First Time
TTITLE10=The Stuff Dreams Are Made Of (12" Version)
TTITLE11=Ain't Nothin' Gonna Keep Me From You (12" Version)
EXTD=
EXTT0=
EXTT1=
EXTT2=
EXTT3=
EXTT4=
EXTT5=
EXTT6=
EXTT7=
EXTT8=
EXTT9=
EXTT10=
EXTT11=
PLAYORDER=
